<svg width="501" height="500" viewBox="0 0 501 500" fill="none" xmlns="http://www.w3.org/2000/svg">
<path fill-rule="evenodd" clip-rule="evenodd" d="M477.982 0H472.982V22.5H427.982V0H422.982V22.5H377.982V0H372.982V22.5H327.982V0H322.982V22.5H277.982V0H272.982V22.5H227.982V0H222.982V22.5H177.982V0H172.982V22.5H127.982V0H122.982V22.5H77.9824V0H72.9824V22.5H27.9824V0H22.9824V22.5H0.482422V27.5H22.9824V72.5H0.482422V77.5H22.9824V122.5H0.482422V127.5H22.9824V172.5H0.482422V177.5H22.9824V222.5H0.482422V227.5H22.9824V272.5H0.482422V277.5H22.9824V322.5H0.482422V327.5H22.9824V372.5H0.482422V377.5H22.9824V422.5H0.482422V427.5H22.9824V472.5H0.482422V477.5H22.9824V500H27.9824V477.5H72.9824V500H77.9824V477.5H122.982V500H127.982V477.5H172.982V500H177.982V477.5H222.982V500H227.982V477.5H272.982V500H277.982V477.5H322.982V500H327.982V477.5H372.982V500H377.982V477.5H422.982V500H427.982V477.5H472.982V500H477.982V477.5H500.482V472.5H477.982V427.5H500.482V422.5H477.982V377.5H500.482V372.5H477.982V327.5H500.482V322.5H477.982V277.5H500.482V272.5H477.982V227.5H500.482V222.5H477.982V177.5H500.482V172.5H477.982V127.5H500.482V122.5H477.982V77.5H500.482V72.5H477.982V27.5H500.482V22.5H477.982V0ZM427.982 72.5H472.982V27.5H427.982V72.5ZM427.982 122.5H472.982V77.5H427.982V122.5ZM427.982 172.5H472.982V127.5H427.982V172.5ZM427.982 222.5H472.982V177.5H427.982V222.5ZM427.982 272.5H472.982V227.5H427.982V272.5ZM427.982 322.5H472.982V277.5H427.982V322.5ZM427.982 372.5H472.982V327.5H427.982V372.5ZM427.982 422.5H472.982V377.5H427.982V422.5ZM427.982 472.5H472.982V427.5H427.982V472.5ZM72.9824 427.5H27.9824V472.5H72.9824V427.5ZM72.9824 377.5H27.9824V422.5H72.9824V377.5ZM72.9824 327.5H27.9824V372.5H72.9824V327.5ZM72.9824 277.5H27.9824V322.5H72.9824V277.5ZM72.9824 227.5H27.9824V272.5H72.9824V227.5ZM72.9824 177.5H27.9824V222.5H72.9824V177.5ZM72.9824 127.5H27.9824V172.5H72.9824V127.5ZM72.9824 77.5H27.9824V122.5H72.9824V77.5ZM72.9824 27.5H27.9824V72.5H72.9824V27.5ZM377.982 72.5H422.982V27.5H377.982V72.5ZM377.982 122.5H422.982V77.5H377.982V122.5ZM377.982 172.5H422.982V127.5H377.982V172.5ZM377.982 222.5H422.982V177.5H377.982V222.5ZM377.982 272.5H422.982V227.5H377.982V272.5ZM377.982 322.5H422.982V277.5H377.982V322.5ZM377.982 372.5H422.982V327.5H377.982V372.5ZM377.982 422.5H422.982V377.5H377.982V422.5ZM122.982 377.5H77.9824V422.5H122.982V377.5ZM122.982 327.5H77.9824V372.5H122.982V327.5ZM122.982 277.5H77.9824V322.5H122.982V277.5ZM122.982 227.5H77.9824V272.5H122.982V227.5ZM122.982 177.5H77.9824V222.5H122.982V177.5ZM122.982 127.5H77.9824V172.5H122.982V127.5ZM122.982 77.5H77.9824V122.5H122.982V77.5ZM327.982 122.5H372.982V77.5H327.982V122.5ZM327.982 172.5H372.982V127.5H327.982V172.5ZM327.982 222.5H372.982V177.5H327.982V222.5ZM327.982 272.5H372.982V227.5H327.982V272.5ZM327.982 322.5H372.982V277.5H327.982V322.5ZM327.982 372.5H372.982V327.5H327.982V372.5ZM172.982 327.5H127.982V372.5H172.982V327.5ZM172.982 277.5H127.982V322.5H172.982V277.5ZM172.982 227.5H127.982V272.5H172.982V227.5ZM172.982 177.5H127.982V222.5H172.982V177.5ZM172.982 127.5H127.982V172.5H172.982V127.5ZM277.982 172.5H322.982V127.5H277.982V172.5ZM277.982 222.5H322.982V177.5H277.982V222.5ZM277.982 272.5H322.982V227.5H277.982V272.5ZM277.982 322.5H322.982V277.5H277.982V322.5ZM222.982 277.5H177.982V322.5H222.982V277.5ZM222.982 227.5H177.982V272.5H222.982V227.5ZM222.982 177.5H177.982V222.5H222.982V177.5ZM227.982 222.5H272.982V177.5H227.982V222.5ZM227.982 272.5H272.982V227.5H227.982V272.5ZM272.982 277.5H227.982V322.5H272.982V277.5ZM227.982 172.5H272.982V127.5H227.982V172.5ZM177.982 172.5H222.982V127.5H177.982V172.5ZM222.982 327.5H177.982V372.5H222.982V327.5ZM272.982 327.5H227.982V372.5H272.982V327.5ZM322.982 327.5H277.982V372.5H322.982V327.5ZM277.982 122.5H322.982V77.5H277.982V122.5ZM227.982 122.5H272.982V77.5H227.982V122.5ZM177.982 122.5H222.982V77.5H177.982V122.5ZM127.982 122.5H172.982V77.5H127.982V122.5ZM172.982 377.5H127.982V422.5H172.982V377.5ZM222.982 377.5H177.982V422.5H222.982V377.5ZM272.982 377.5H227.982V422.5H272.982V377.5ZM322.982 377.5H277.982V422.5H322.982V377.5ZM372.982 377.5H327.982V422.5H372.982V377.5ZM327.982 72.5H372.982V27.5H327.982V72.5ZM277.982 72.5H322.982V27.5H277.982V72.5ZM227.982 72.5H272.982V27.5H227.982V72.5ZM177.982 72.5H222.982V27.5H177.982V72.5ZM127.982 72.5H172.982V27.5H127.982V72.5ZM77.9824 72.5H122.982V27.5H77.9824V72.5ZM122.982 427.5H77.9824V472.5H122.982V427.5ZM172.982 427.5H127.982V472.5H172.982V427.5ZM222.982 427.5H177.982V472.5H222.982V427.5ZM272.982 427.5H227.982V472.5H272.982V427.5ZM322.982 427.5H277.982V472.5H322.982V427.5ZM372.982 427.5H327.982V472.5H372.982V427.5ZM422.982 427.5H377.982V472.5H422.982V427.5Z" fill="#FFFDFD"/>
</svg>
